<svg xmlns="http://www.w3.org/2000/svg" width="375" viewBox="0 0 375 375" height="375" version="1.0"><defs><clipPath id="a"><path d="M 328 328 L 337.5 328 L 337.5 337.5 L 328 337.5 Z M 328 328"/></clipPath><clipPath id="b"><path d="M 37.5 46 L 47 46 L 47 329 L 37.5 329 Z M 37.5 46"/></clipPath><clipPath id="c"><path d="M 37.5 328 L 47 328 L 47 337.5 L 37.5 337.5 Z M 37.5 328"/></clipPath><clipPath id="d"><path d="M 328 46 L 337.5 46 L 337.5 329 L 328 329 Z M 328 46"/></clipPath><clipPath id="e"><path d="M 46 328 L 329 328 L 329 337.5 L 46 337.5 Z M 46 328"/></clipPath><clipPath id="f"><path d="M 328 37.5 L 337.5 37.5 L 337.5 47 L 328 47 Z M 328 37.5"/></clipPath><clipPath id="g"><path d="M 37.5 37.5 L 47 37.5 L 47 47 L 37.5 47 Z M 37.5 37.5"/></clipPath><clipPath id="h"><path d="M 46 37.5 L 329 37.5 L 329 47 L 46 47 Z M 46 37.5"/></clipPath><clipPath id="i"><path d="M 266 127 L 308 127 L 308 160.652344 L 266 160.652344 Z M 266 127"/></clipPath><clipPath id="j"><path d="M 198.671875 57.152344 L 318.53125 57.152344 L 318.53125 160.652344 L 198.671875 160.652344 Z M 198.671875 57.152344"/></clipPath></defs><path fill="#FFF" d="M-37.5 -37.5H412.5V412.5H-37.5z"/><g clip-path="url(#a)"><path d="M 328.601562 328.601562 L 337.5 328.601562 L 337.5 337.5 L 328.601562 337.5 Z M 328.601562 328.601562"/></g><g clip-path="url(#b)"><path d="M 37.5 46.5 L 46.5 46.5 L 46.5 328.601562 L 37.5 328.601562 Z M 37.5 46.5"/></g><g clip-path="url(#c)"><path d="M 37.5 328.601562 L 46.5 328.601562 L 46.5 337.5 L 37.5 337.5 Z M 37.5 328.601562"/></g><g clip-path="url(#d)"><path d="M 328.601562 46.5 L 337.5 46.5 L 337.5 328.601562 L 328.601562 328.601562 Z M 328.601562 46.5"/></g><g clip-path="url(#e)"><path d="M 46.5 328.601562 L 328.601562 328.601562 L 328.601562 337.5 L 46.5 337.5 Z M 46.5 328.601562"/></g><g clip-path="url(#f)"><path d="M 328.601562 37.5 L 337.5 37.5 L 337.5 46.5 L 328.601562 46.5 Z M 328.601562 37.5"/></g><g clip-path="url(#g)"><path d="M 37.5 37.5 L 46.5 37.5 L 46.5 46.5 L 37.5 46.5 Z M 37.5 37.5"/></g><g clip-path="url(#h)"><path d="M 46.5 37.5 L 328.601562 37.5 L 328.601562 46.5 L 46.5 46.5 Z M 46.5 37.5"/></g><g><g><g><path d="M 28.453125 -31.3125 L 28.90625 -20.078125 L 28.046875 -20.078125 C 26.734375 -24.046875 25.566406 -26.753906 24.546875 -28.203125 C 23.535156 -29.648438 22.078125 -30.375 20.171875 -30.375 L 19.640625 -30.375 L 19.640625 -0.9375 L 23.4375 -0.9375 L 23.4375 0 L 7.109375 0 L 7.109375 -0.9375 L 10.921875 -0.9375 L 10.921875 -30.375 L 10.328125 -30.375 C 8.421875 -30.375 6.945312 -29.617188 5.90625 -28.109375 C 4.863281 -26.609375 3.710938 -23.929688 2.453125 -20.078125 L 1.609375 -20.078125 L 2.0625 -31.3125 Z M 28.453125 -31.3125" transform="translate(69.64 190.666)"/></g></g></g><g><g><g><path d="M 0.453125 -33.546875 L 11.234375 -33.546875 L 11.234375 -17.171875 C 11.703125 -18.546875 12.425781 -19.648438 13.40625 -20.484375 C 14.394531 -21.316406 15.890625 -21.734375 17.890625 -21.734375 C 22.515625 -21.734375 24.828125 -19.242188 24.828125 -14.265625 L 24.828125 -0.8125 L 27.328125 -0.8125 L 27.328125 0 L 14.671875 0 L 14.671875 -0.8125 L 16.5 -0.8125 L 16.5 -15.34375 C 16.5 -17.132812 16.378906 -18.289062 16.140625 -18.8125 C 15.910156 -19.332031 15.484375 -19.59375 14.859375 -19.59375 C 13.898438 -19.59375 13.054688 -18.96875 12.328125 -17.71875 C 11.597656 -16.46875 11.234375 -14.945312 11.234375 -13.15625 L 11.234375 -0.8125 L 13.15625 -0.8125 L 13.15625 0 L 0.453125 0 L 0.453125 -0.8125 L 2.90625 -0.8125 L 2.90625 -32.75 L 0.453125 -32.75 Z M 0.453125 -33.546875" transform="translate(100.19 190.666)"/></g></g></g><g><g><g><path d="M 12.21875 0.453125 C 8.363281 0.453125 5.472656 -0.535156 3.546875 -2.515625 C 1.628906 -4.503906 0.671875 -7.265625 0.671875 -10.796875 C 0.671875 -14.335938 1.75 -17.046875 3.90625 -18.921875 C 6.070312 -20.796875 8.828125 -21.734375 12.171875 -21.734375 C 18.941406 -21.734375 22.191406 -18.335938 21.921875 -11.546875 L 9.3125 -11.546875 L 9.3125 -9.796875 C 9.3125 -6.867188 9.679688 -4.660156 10.421875 -3.171875 C 11.171875 -1.679688 12.46875 -0.9375 14.3125 -0.9375 C 17.769531 -0.9375 20.035156 -2.785156 21.109375 -6.484375 L 21.921875 -6.359375 C 21.347656 -4.203125 20.320312 -2.523438 18.84375 -1.328125 C 17.375 -0.140625 15.164062 0.453125 12.21875 0.453125 Z M 9.34375 -12.4375 L 13.953125 -12.4375 L 13.953125 -14.625 C 13.953125 -17.039062 13.8125 -18.6875 13.53125 -19.5625 C 13.25 -20.445312 12.679688 -20.890625 11.828125 -20.890625 C 10.984375 -20.890625 10.359375 -20.421875 9.953125 -19.484375 C 9.546875 -18.546875 9.34375 -16.925781 9.34375 -14.625 Z M 9.34375 -12.4375" transform="translate(127.745 190.666)"/></g></g></g><g><g><g><path d="M 0.9375 -31.3125 L 24.203125 -31.3125 L 24.65625 -22.453125 L 23.84375 -22.453125 C 22.59375 -25.460938 21.28125 -27.523438 19.90625 -28.640625 C 18.53125 -29.765625 16.519531 -30.328125 13.875 -30.328125 L 12.296875 -30.328125 L 12.296875 -16.5 L 13.828125 -16.5 C 15.222656 -16.5 16.394531 -17.03125 17.34375 -18.09375 C 18.300781 -19.15625 18.976562 -20.582031 19.375 -22.375 L 20.046875 -22.375 L 20.046875 -9.125 L 19.28125 -9.125 C 18.738281 -11.363281 18.015625 -12.957031 17.109375 -13.90625 C 16.203125 -14.863281 14.957031 -15.34375 13.375 -15.34375 L 12.296875 -15.34375 L 12.296875 -0.984375 L 14 -0.984375 C 16.75 -0.984375 19.082031 -1.800781 21 -3.4375 C 22.925781 -5.082031 24.25 -7.1875 24.96875 -9.75 L 25.859375 -9.75 L 25.5 0 L 0.9375 0 L 0.9375 -0.984375 L 3.578125 -0.984375 L 3.578125 -30.328125 L 0.9375 -30.328125 Z M 0.9375 -31.3125" transform="translate(69.64 228.166)"/></g></g></g><g><g><g><path d="M 1.46875 0.453125 L 1.46875 -7.5625 L 2.015625 -7.5625 C 2.785156 -4.96875 3.828125 -3.144531 5.140625 -2.09375 C 6.453125 -1.050781 8.09375 -0.53125 10.0625 -0.53125 C 13.101562 -0.53125 14.625 -1.5 14.625 -3.4375 C 14.625 -4.28125 14.253906 -4.910156 13.515625 -5.328125 C 12.347656 -5.984375 10.851562 -6.488281 9.03125 -6.84375 C 7.007812 -7.382812 5.3125 -8.097656 3.9375 -8.984375 C 2.289062 -10.066406 1.46875 -11.769531 1.46875 -14.09375 C 1.46875 -16.414062 2.179688 -18.269531 3.609375 -19.65625 C 5.046875 -21.039062 6.957031 -21.734375 9.34375 -21.734375 C 10.8125 -21.734375 12.320312 -21.394531 13.875 -20.71875 C 14.4375 -20.476562 14.863281 -20.359375 15.15625 -20.359375 C 15.457031 -20.359375 15.710938 -20.460938 15.921875 -20.671875 C 16.128906 -20.878906 16.382812 -21.265625 16.6875 -21.828125 L 17.171875 -21.828125 L 17.171875 -14.984375 L 16.640625 -14.984375 C 15.117188 -18.859375 12.765625 -20.796875 9.578125 -20.796875 C 8.171875 -20.796875 7.125 -20.550781 6.4375 -20.0625 C 5.75 -19.570312 5.40625 -18.953125 5.40625 -18.203125 C 5.40625 -17.753906 5.507812 -17.40625 5.71875 -17.15625 C 5.9375 -16.90625 6.101562 -16.71875 6.21875 -16.59375 C 6.332031 -16.476562 6.523438 -16.351562 6.796875 -16.21875 C 7.066406 -16.082031 7.289062 -15.976562 7.46875 -15.90625 C 7.644531 -15.832031 7.921875 -15.734375 8.296875 -15.609375 C 8.671875 -15.492188 8.945312 -15.421875 9.125 -15.390625 C 11.15625 -14.878906 12.617188 -14.4375 13.515625 -14.0625 C 14.410156 -13.695312 15.257812 -13.242188 16.0625 -12.703125 C 17.695312 -11.566406 18.515625 -9.738281 18.515625 -7.21875 C 18.515625 -4.695312 17.769531 -2.785156 16.28125 -1.484375 C 14.789062 -0.191406 12.75 0.453125 10.15625 0.453125 C 8.300781 0.453125 6.507812 0.0195312 4.78125 -0.84375 C 4.425781 -1.082031 4.144531 -1.203125 3.9375 -1.203125 C 3.28125 -1.203125 2.640625 -0.648438 2.015625 0.453125 Z M 1.46875 0.453125" transform="translate(97.552 228.166)"/></g></g></g><g><g><g><path d="M 1.46875 0.453125 L 1.46875 -7.5625 L 2.015625 -7.5625 C 2.785156 -4.96875 3.828125 -3.144531 5.140625 -2.09375 C 6.453125 -1.050781 8.09375 -0.53125 10.0625 -0.53125 C 13.101562 -0.53125 14.625 -1.5 14.625 -3.4375 C 14.625 -4.28125 14.253906 -4.910156 13.515625 -5.328125 C 12.347656 -5.984375 10.851562 -6.488281 9.03125 -6.84375 C 7.007812 -7.382812 5.3125 -8.097656 3.9375 -8.984375 C 2.289062 -10.066406 1.46875 -11.769531 1.46875 -14.09375 C 1.46875 -16.414062 2.179688 -18.269531 3.609375 -19.65625 C 5.046875 -21.039062 6.957031 -21.734375 9.34375 -21.734375 C 10.8125 -21.734375 12.320312 -21.394531 13.875 -20.71875 C 14.4375 -20.476562 14.863281 -20.359375 15.15625 -20.359375 C 15.457031 -20.359375 15.710938 -20.460938 15.921875 -20.671875 C 16.128906 -20.878906 16.382812 -21.265625 16.6875 -21.828125 L 17.171875 -21.828125 L 17.171875 -14.984375 L 16.640625 -14.984375 C 15.117188 -18.859375 12.765625 -20.796875 9.578125 -20.796875 C 8.171875 -20.796875 7.125 -20.550781 6.4375 -20.0625 C 5.75 -19.570312 5.40625 -18.953125 5.40625 -18.203125 C 5.40625 -17.753906 5.507812 -17.40625 5.71875 -17.15625 C 5.9375 -16.90625 6.101562 -16.71875 6.21875 -16.59375 C 6.332031 -16.476562 6.523438 -16.351562 6.796875 -16.21875 C 7.066406 -16.082031 7.289062 -15.976562 7.46875 -15.90625 C 7.644531 -15.832031 7.921875 -15.734375 8.296875 -15.609375 C 8.671875 -15.492188 8.945312 -15.421875 9.125 -15.390625 C 11.15625 -14.878906 12.617188 -14.4375 13.515625 -14.0625 C 14.410156 -13.695312 15.257812 -13.242188 16.0625 -12.703125 C 17.695312 -11.566406 18.515625 -9.738281 18.515625 -7.21875 C 18.515625 -4.695312 17.769531 -2.785156 16.28125 -1.484375 C 14.789062 -0.191406 12.75 0.453125 10.15625 0.453125 C 8.300781 0.453125 6.507812 0.0195312 4.78125 -0.84375 C 4.425781 -1.082031 4.144531 -1.203125 3.9375 -1.203125 C 3.28125 -1.203125 2.640625 -0.648438 2.015625 0.453125 Z M 1.46875 0.453125" transform="translate(116.965 228.166)"/></g></g></g><g><g><g><path d="M 12.21875 0.453125 C 8.363281 0.453125 5.472656 -0.535156 3.546875 -2.515625 C 1.628906 -4.503906 0.671875 -7.265625 0.671875 -10.796875 C 0.671875 -14.335938 1.75 -17.046875 3.90625 -18.921875 C 6.070312 -20.796875 8.828125 -21.734375 12.171875 -21.734375 C 18.941406 -21.734375 22.191406 -18.335938 21.921875 -11.546875 L 9.3125 -11.546875 L 9.3125 -9.796875 C 9.3125 -6.867188 9.679688 -4.660156 10.421875 -3.171875 C 11.171875 -1.679688 12.46875 -0.9375 14.3125 -0.9375 C 17.769531 -0.9375 20.035156 -2.785156 21.109375 -6.484375 L 21.921875 -6.359375 C 21.347656 -4.203125 20.320312 -2.523438 18.84375 -1.328125 C 17.375 -0.140625 15.164062 0.453125 12.21875 0.453125 Z M 9.34375 -12.4375 L 13.953125 -12.4375 L 13.953125 -14.625 C 13.953125 -17.039062 13.8125 -18.6875 13.53125 -19.5625 C 13.25 -20.445312 12.679688 -20.890625 11.828125 -20.890625 C 10.984375 -20.890625 10.359375 -20.421875 9.953125 -19.484375 C 9.546875 -18.546875 9.34375 -16.925781 9.34375 -14.625 Z M 9.34375 -12.4375" transform="translate(136.378 228.166)"/></g></g></g><g><g><g><path d="M 0.53125 -21.296875 L 11.3125 -21.296875 L 11.3125 -17.171875 C 11.789062 -18.546875 12.519531 -19.648438 13.5 -20.484375 C 14.488281 -21.316406 15.984375 -21.734375 17.984375 -21.734375 C 22.609375 -21.734375 24.921875 -19.242188 24.921875 -14.265625 L 24.921875 -0.8125 L 27.421875 -0.8125 L 27.421875 0 L 14.765625 0 L 14.765625 -0.8125 L 16.59375 -0.8125 L 16.59375 -15.34375 C 16.59375 -17.132812 16.472656 -18.289062 16.234375 -18.8125 C 15.992188 -19.332031 15.5625 -19.59375 14.9375 -19.59375 C 13.988281 -19.59375 13.144531 -18.96875 12.40625 -17.71875 C 11.675781 -16.46875 11.3125 -14.945312 11.3125 -13.15625 L 11.3125 -0.8125 L 13.234375 -0.8125 L 13.234375 0 L 0.53125 0 L 0.53125 -0.8125 L 3 -0.8125 L 3 -20.484375 L 0.53125 -20.484375 Z M 0.53125 -21.296875" transform="translate(159.459 228.166)"/></g></g></g><g><g><g><path d="M 2.6875 -6.390625 L 2.6875 -20.484375 L 0.21875 -20.484375 L 0.21875 -21.296875 L 2.6875 -21.296875 L 2.6875 -27.0625 L 11 -29.125 L 11 -21.296875 L 16.8125 -21.296875 L 16.8125 -20.484375 L 11 -20.484375 L 11 -5.40625 C 11 -4.007812 11.140625 -2.984375 11.421875 -2.328125 C 11.710938 -1.671875 12.300781 -1.34375 13.1875 -1.34375 C 14.082031 -1.34375 14.863281 -1.789062 15.53125 -2.6875 C 16.207031 -3.582031 16.648438 -4.804688 16.859375 -6.359375 L 17.625 -6.265625 C 17.382812 -4.203125 16.726562 -2.566406 15.65625 -1.359375 C 14.582031 -0.148438 12.804688 0.453125 10.328125 0.453125 C 7.859375 0.453125 5.96875 -0.0351562 4.65625 -1.015625 C 3.34375 -2.003906 2.6875 -3.796875 2.6875 -6.390625 Z M 2.6875 -6.390625" transform="translate(187.013 228.166)"/></g></g></g><g><g><g><path d="M 7.015625 -24.375 C 5.441406 -24.375 4.316406 -24.773438 3.640625 -25.578125 C 2.972656 -26.390625 2.640625 -27.390625 2.640625 -28.578125 C 2.640625 -29.773438 3.003906 -30.757812 3.734375 -31.53125 C 4.460938 -32.3125 5.570312 -32.703125 7.0625 -32.703125 C 8.5625 -32.703125 9.695312 -32.347656 10.46875 -31.640625 C 11.238281 -30.941406 11.625 -29.941406 11.625 -28.640625 C 11.625 -27.347656 11.25 -26.3125 10.5 -25.53125 C 9.757812 -24.757812 8.597656 -24.375 7.015625 -24.375 Z M 0.265625 -21.296875 L 11.234375 -21.296875 L 11.234375 -0.8125 L 13.734375 -0.8125 L 13.734375 0 L 0.453125 0 L 0.453125 -0.8125 L 2.90625 -0.8125 L 2.90625 -20.484375 L 0.265625 -20.484375 Z M 0.265625 -21.296875" transform="translate(204.636 228.166)"/></g></g></g><g><g><g><path d="M 11.1875 -10.515625 L 12.484375 -10.515625 L 12.484375 -13.953125 C 12.484375 -16.785156 12.328125 -18.6875 12.015625 -19.65625 C 11.703125 -20.625 11.097656 -21.109375 10.203125 -21.109375 C 9.660156 -21.109375 9.171875 -20.96875 8.734375 -20.6875 C 8.304688 -20.40625 8.09375 -20.015625 8.09375 -19.515625 C 8.09375 -19.023438 8.179688 -18.53125 8.359375 -18.03125 L 9.484375 -18.03125 C 9.722656 -17.40625 9.84375 -16.648438 9.84375 -15.765625 C 9.84375 -14.890625 9.46875 -14.128906 8.71875 -13.484375 C 7.976562 -12.847656 7.039062 -12.53125 5.90625 -12.53125 C 3.34375 -12.53125 2.0625 -13.765625 2.0625 -16.234375 C 2.0625 -19.898438 5.175781 -21.734375 11.40625 -21.734375 C 14.957031 -21.734375 17.410156 -21.128906 18.765625 -19.921875 C 20.117188 -18.722656 20.796875 -16.507812 20.796875 -13.28125 L 20.796875 -4.203125 C 20.796875 -2.648438 21.226562 -1.875 22.09375 -1.875 C 23.113281 -1.875 23.710938 -3.410156 23.890625 -6.484375 L 24.5625 -6.4375 C 24.4375 -3.8125 23.941406 -2.003906 23.078125 -1.015625 C 22.210938 -0.0351562 20.796875 0.453125 18.828125 0.453125 C 15.253906 0.453125 13.195312 -0.648438 12.65625 -2.859375 C 12.269531 -1.722656 11.6875 -0.882812 10.90625 -0.34375 C 10.132812 0.1875 9.003906 0.453125 7.515625 0.453125 C 3.097656 0.453125 0.890625 -1.351562 0.890625 -4.96875 C 0.890625 -7.082031 1.734375 -8.535156 3.421875 -9.328125 C 5.109375 -10.117188 7.695312 -10.515625 11.1875 -10.515625 Z M 9.390625 -5.015625 C 9.390625 -3.460938 9.472656 -2.460938 9.640625 -2.015625 C 9.804688 -1.566406 10.117188 -1.34375 10.578125 -1.34375 C 11.035156 -1.34375 11.46875 -1.722656 11.875 -2.484375 C 12.28125 -3.242188 12.484375 -4.296875 12.484375 -5.640625 L 12.484375 -9.796875 L 12.171875 -9.796875 C 10.316406 -9.796875 9.390625 -8.4375 9.390625 -5.71875 Z M 9.390625 -5.015625" transform="translate(218.816 228.166)"/></g></g></g><g><g><g><path d="M 0.265625 -33.546875 L 11.234375 -33.546875 L 11.234375 -0.8125 L 13.734375 -0.8125 L 13.734375 0 L 0.453125 0 L 0.453125 -0.8125 L 2.90625 -0.8125 L 2.90625 -32.75 L 0.265625 -32.75 Z M 0.265625 -33.546875" transform="translate(243.373 228.166)"/></g></g></g><g><g><g><path d="M 19.328125 -0.84375 L 16.0625 -10.515625 L 7.203125 -10.515625 L 3.75 -0.84375 L 7.109375 -0.84375 L 7.109375 0 L 0.265625 0 L 0.265625 -0.84375 L 2.375 -0.84375 L 13.78125 -31.578125 L 17.453125 -31.578125 L 28.71875 -0.84375 L 30.78125 -0.84375 L 30.78125 0 L 16.15625 0 L 16.15625 -0.84375 Z M 11.8125 -23.21875 L 7.609375 -11.5 L 15.703125 -11.5 Z M 11.8125 -23.21875" transform="translate(69.64 265.666)"/></g></g></g><g><g><g><path d="M 1.125 -31.3125 L 14.765625 -31.3125 L 14.765625 -30.46875 L 12.296875 -30.46875 L 12.296875 -0.84375 L 14.765625 -0.84375 L 14.765625 0 L 1.125 0 L 1.125 -0.84375 L 3.578125 -0.84375 L 3.578125 -30.46875 L 1.125 -30.46875 Z M 1.125 -31.3125" transform="translate(100.683 265.666)"/></g></g></g><g><g><g><path d="M 1.296875 0 L 0.46875 0 L 0.46875 -8.34375 L 1.640625 -8.34375 L 3.578125 -2.3125 L 3.578125 -8.34375 L 4.40625 -8.34375 L 4.40625 0 L 3.4375 0 L 1.296875 -6.75 Z M 1.296875 0" transform="translate(69.64 301.609)"/></g></g></g><g><g><g><path d="M 1.421875 -1.6875 L 1.09375 0 L 0.234375 0 L 1.84375 -8.34375 L 3.1875 -8.34375 L 4.78125 0 L 3.84375 0 L 3.53125 -1.6875 Z M 1.53125 -2.484375 L 3.390625 -2.484375 L 2.453125 -7.296875 Z M 1.53125 -2.484375" transform="translate(76.9 301.609)"/></g></g></g><g><g><g><path d="M 2.34375 -8.34375 C 3 -8.34375 3.472656 -8.179688 3.765625 -7.859375 C 4.054688 -7.535156 4.203125 -7.0625 4.203125 -6.4375 L 4.203125 -5.765625 C 4.203125 -5.296875 4.117188 -4.914062 3.953125 -4.625 C 3.785156 -4.34375 3.519531 -4.148438 3.15625 -4.046875 C 3.539062 -3.929688 3.8125 -3.722656 3.96875 -3.421875 C 4.125 -3.128906 4.203125 -2.753906 4.203125 -2.296875 L 4.203125 -1 C 4.203125 -0.820312 4.207031 -0.644531 4.21875 -0.46875 C 4.238281 -0.300781 4.289062 -0.144531 4.375 0 L 3.4375 0 C 3.375 -0.113281 3.332031 -0.238281 3.3125 -0.375 C 3.289062 -0.519531 3.28125 -0.734375 3.28125 -1.015625 L 3.28125 -2.328125 C 3.28125 -2.796875 3.171875 -3.117188 2.953125 -3.296875 C 2.742188 -3.472656 2.445312 -3.5625 2.0625 -3.5625 L 1.40625 -3.5625 L 1.40625 0 L 0.484375 0 L 0.484375 -8.34375 Z M 2.09375 -4.40625 C 2.46875 -4.40625 2.757812 -4.484375 2.96875 -4.640625 C 3.175781 -4.796875 3.28125 -5.101562 3.28125 -5.5625 L 3.28125 -6.359375 C 3.28125 -6.734375 3.207031 -7.015625 3.0625 -7.203125 C 2.914062 -7.398438 2.664062 -7.5 2.3125 -7.5 L 1.40625 -7.5 L 1.40625 -4.40625 Z M 2.09375 -4.40625" transform="translate(84.314 301.609)"/></g></g></g><g><g><g><path d="M 3.453125 -4.65625 L 3.453125 -3.8125 L 1.40625 -3.8125 L 1.40625 -0.84375 L 3.90625 -0.84375 L 3.90625 0 L 0.484375 0 L 0.484375 -8.34375 L 3.90625 -8.34375 L 3.90625 -7.5 L 1.40625 -7.5 L 1.40625 -4.65625 Z M 3.453125 -4.65625" transform="translate(91.395 301.609)"/></g></g></g><g><g><g><path d="M 2.234375 -8.421875 C 2.867188 -8.421875 3.335938 -8.234375 3.640625 -7.859375 C 3.941406 -7.484375 4.09375 -6.976562 4.09375 -6.34375 L 4.09375 -6.109375 L 3.203125 -6.109375 L 3.203125 -6.390625 C 3.203125 -6.773438 3.125 -7.066406 2.96875 -7.265625 C 2.820312 -7.472656 2.582031 -7.578125 2.25 -7.578125 C 1.914062 -7.578125 1.671875 -7.472656 1.515625 -7.265625 C 1.367188 -7.066406 1.296875 -6.78125 1.296875 -6.40625 C 1.296875 -6.09375 1.363281 -5.820312 1.5 -5.59375 C 1.644531 -5.363281 1.820312 -5.148438 2.03125 -4.953125 C 2.238281 -4.753906 2.460938 -4.5625 2.703125 -4.375 C 2.941406 -4.1875 3.164062 -3.984375 3.375 -3.765625 C 3.582031 -3.546875 3.753906 -3.296875 3.890625 -3.015625 C 4.023438 -2.734375 4.09375 -2.394531 4.09375 -2 C 4.09375 -1.363281 3.941406 -0.859375 3.640625 -0.484375 C 3.335938 -0.109375 2.863281 0.078125 2.21875 0.078125 C 1.570312 0.078125 1.097656 -0.109375 0.796875 -0.484375 C 0.492188 -0.859375 0.34375 -1.363281 0.34375 -2 L 0.34375 -2.484375 L 1.21875 -2.484375 L 1.21875 -1.953125 C 1.21875 -1.578125 1.296875 -1.285156 1.453125 -1.078125 C 1.609375 -0.867188 1.851562 -0.765625 2.1875 -0.765625 C 2.519531 -0.765625 2.765625 -0.867188 2.921875 -1.078125 C 3.085938 -1.285156 3.171875 -1.578125 3.171875 -1.953125 C 3.171875 -2.265625 3.097656 -2.53125 2.953125 -2.75 C 2.816406 -2.976562 2.644531 -3.191406 2.4375 -3.390625 C 2.238281 -3.585938 2.019531 -3.78125 1.78125 -3.96875 C 1.539062 -4.15625 1.316406 -4.359375 1.109375 -4.578125 C 0.898438 -4.796875 0.722656 -5.046875 0.578125 -5.328125 C 0.441406 -5.617188 0.375 -5.957031 0.375 -6.34375 C 0.375 -6.988281 0.523438 -7.492188 0.828125 -7.859375 C 1.128906 -8.234375 1.597656 -8.421875 2.234375 -8.421875 Z M 2.234375 -8.421875" transform="translate(98.07 301.609)"/></g></g></g><g><g><g><path d="M 1.40625 -3.75 L 1.40625 0 L 0.484375 0 L 0.484375 -8.34375 L 1.40625 -8.34375 L 1.40625 -4.59375 L 3.453125 -4.59375 L 3.453125 -8.34375 L 4.390625 -8.34375 L 4.390625 0 L 3.453125 0 L 3.453125 -3.75 Z M 1.40625 -3.75" transform="translate(104.889 301.609)"/></g></g></g><g><g><g><path d="M 1.890625 -3.625 L 1.40625 -2.796875 L 1.40625 0 L 0.484375 0 L 0.484375 -8.34375 L 1.40625 -8.34375 L 1.40625 -4.3125 L 3.625 -8.34375 L 4.5625 -8.34375 L 2.453125 -4.546875 L 4.640625 0 L 3.6875 0 Z M 1.890625 -3.625" transform="translate(116.369 301.609)"/></g></g></g><g><g><g><path d="M 1.359375 -1.96875 C 1.359375 -1.582031 1.4375 -1.285156 1.59375 -1.078125 C 1.75 -0.867188 2 -0.765625 2.34375 -0.765625 C 2.675781 -0.765625 2.914062 -0.867188 3.0625 -1.078125 C 3.21875 -1.285156 3.296875 -1.582031 3.296875 -1.96875 L 3.296875 -8.34375 L 4.171875 -8.34375 L 4.171875 -2.015625 C 4.171875 -1.378906 4.019531 -0.867188 3.71875 -0.484375 C 3.414062 -0.0976562 2.941406 0.09375 2.296875 0.09375 C 1.660156 0.09375 1.191406 -0.0976562 0.890625 -0.484375 C 0.585938 -0.867188 0.4375 -1.378906 0.4375 -2.015625 L 0.4375 -8.34375 L 1.359375 -8.34375 Z M 1.359375 -1.96875" transform="translate(123.628 301.609)"/></g></g></g><g><g><g><path d="M 3.546875 -0.015625 L 2.65625 -0.015625 L 1.28125 -6.65625 L 1.28125 0 L 0.46875 0 L 0.46875 -8.34375 L 1.765625 -8.34375 L 3.140625 -1.6875 L 4.453125 -8.34375 L 5.765625 -8.34375 L 5.765625 0 L 4.875 0 L 4.875 -6.71875 Z M 3.546875 -0.015625" transform="translate(130.626 301.609)"/></g></g></g><g><g><g><path d="M 1.421875 -1.6875 L 1.09375 0 L 0.234375 0 L 1.84375 -8.34375 L 3.1875 -8.34375 L 4.78125 0 L 3.84375 0 L 3.53125 -1.6875 Z M 1.53125 -2.484375 L 3.390625 -2.484375 L 2.453125 -7.296875 Z M 1.53125 -2.484375" transform="translate(139.244 301.609)"/></g></g></g><g><g><g><path d="M 2.34375 -8.34375 C 3 -8.34375 3.472656 -8.179688 3.765625 -7.859375 C 4.054688 -7.535156 4.203125 -7.0625 4.203125 -6.4375 L 4.203125 -5.765625 C 4.203125 -5.296875 4.117188 -4.914062 3.953125 -4.625 C 3.785156 -4.34375 3.519531 -4.148438 3.15625 -4.046875 C 3.539062 -3.929688 3.8125 -3.722656 3.96875 -3.421875 C 4.125 -3.128906 4.203125 -2.753906 4.203125 -2.296875 L 4.203125 -1 C 4.203125 -0.820312 4.207031 -0.644531 4.21875 -0.46875 C 4.238281 -0.300781 4.289062 -0.144531 4.375 0 L 3.4375 0 C 3.375 -0.113281 3.332031 -0.238281 3.3125 -0.375 C 3.289062 -0.519531 3.28125 -0.734375 3.28125 -1.015625 L 3.28125 -2.328125 C 3.28125 -2.796875 3.171875 -3.117188 2.953125 -3.296875 C 2.742188 -3.472656 2.445312 -3.5625 2.0625 -3.5625 L 1.40625 -3.5625 L 1.40625 0 L 0.484375 0 L 0.484375 -8.34375 Z M 2.09375 -4.40625 C 2.46875 -4.40625 2.757812 -4.484375 2.96875 -4.640625 C 3.175781 -4.796875 3.28125 -5.101562 3.28125 -5.5625 L 3.28125 -6.359375 C 3.28125 -6.734375 3.207031 -7.015625 3.0625 -7.203125 C 2.914062 -7.398438 2.664062 -7.5 2.3125 -7.5 L 1.40625 -7.5 L 1.40625 -4.40625 Z M 2.09375 -4.40625" transform="translate(146.658 301.609)"/></g></g></g><path fill="#FFF" d="M 304.792969 119.195312 L 278.574219 107.070312 C 278.746094 106.480469 278.835938 105.851562 278.835938 105.199219 C 278.835938 103.640625 278.300781 102.207031 277.40625 101.0625 L 292.167969 86.566406 C 293.148438 87.117188 294.273438 87.425781 295.476562 87.425781 C 296.5625 87.425781 297.59375 87.164062 298.503906 86.710938 L 309.03125 116.917969 C 307.34375 117.128906 305.839844 117.964844 304.78125 119.183594 Z M 304.792969 119.195312" fill-rule="evenodd"/><path fill="#FFF" d="M 277.804688 108.777344 L 303.753906 120.773438 C 303.355469 121.636719 303.132812 122.597656 303.132812 123.605469 C 303.132812 124.359375 303.257812 125.078125 303.480469 125.753906 L 270.449219 136.851562 C 269.925781 135.125 268.722656 133.691406 267.152344 132.867188 L 271.527344 111.917969 C 271.710938 111.9375 271.894531 111.9375 272.082031 111.9375 C 274.496094 111.9375 276.613281 110.675781 277.804688 108.765625 Z M 277.804688 108.777344" fill-rule="evenodd"/><g clip-path="url(#i)"><path fill="#FFF" d="M 270.75 138.730469 L 304.335938 127.449219 C 305.074219 128.515625 306.113281 129.359375 307.335938 129.855469 L 300.96875 139.652344 L 277.195312 149.273438 L 276.429688 149.585938 L 276.640625 150.378906 L 279.359375 160.476562 L 270.285156 160.652344 L 266.859375 144.933594 C 269.160156 143.859375 270.761719 141.523438 270.761719 138.820312 L 270.761719 138.722656 Z M 270.75 138.730469" fill-rule="evenodd"/></g><path fill="#FFF" d="M 269.703125 111.507812 L 265.375 132.230469 C 264.929688 132.132812 264.472656 132.082031 263.996094 132.082031 C 260.269531 132.082031 257.242188 135.105469 257.242188 138.828125 L 257.242188 138.886719 L 241.816406 139.03125 L 234.855469 130.136719 C 235.808594 128.972656 236.390625 127.480469 236.390625 125.863281 C 236.390625 125.320312 236.320312 124.796875 236.207031 124.300781 L 266.460938 108.929688 C 267.238281 110.09375 268.375 111.003906 269.703125 111.507812 Z M 269.703125 111.507812" fill-rule="evenodd"/><path fill="#FFF" d="M 265.648438 107.234375 L 235.515625 122.546875 C 234.972656 121.589844 234.207031 120.785156 233.285156 120.191406 L 240.929688 94.480469 C 244.09375 93.929688 246.5 91.167969 246.5 87.84375 C 246.5 85.90625 245.675781 84.152344 244.367188 82.921875 L 247.453125 72.53125 C 247.898438 72.628906 248.363281 72.675781 248.839844 72.675781 C 249.886719 72.675781 250.878906 72.433594 251.769531 72.007812 L 267.9375 99.898438 C 266.355469 101.128906 265.347656 103.050781 265.347656 105.210938 C 265.347656 105.917969 265.453125 106.605469 265.65625 107.246094 Z M 265.648438 107.234375" fill-rule="evenodd"/><path fill="#FFF" d="M 269.546875 98.949219 L 253.324219 70.953125 C 254.214844 70.15625 254.894531 69.121094 255.273438 67.957031 L 289.050781 78.648438 C 288.847656 79.285156 288.742188 79.976562 288.742188 80.683594 C 288.742188 82.523438 289.480469 84.191406 290.683594 85.410156 L 276.078125 99.753906 C 274.960938 98.941406 273.585938 98.457031 272.089844 98.457031 C 271.1875 98.457031 270.332031 98.628906 269.546875 98.949219 Z M 269.546875 98.949219" fill-rule="evenodd"/><path fill="#FFF" d="M 239.746094 81.089844 C 236.449219 81.089844 233.691406 83.453125 233.109375 86.585938 L 210.113281 88.773438 C 210.074219 88.328125 209.984375 87.890625 209.859375 87.476562 L 242.921875 69.179688 C 243.5625 70.324219 244.511719 71.261719 245.675781 71.875 L 242.738281 81.777344 C 241.832031 81.332031 240.816406 81.078125 239.746094 81.078125 Z M 239.746094 81.089844" fill-rule="evenodd"/><path fill="#FFF" d="M 210.023438 90.664062 L 233.023438 88.472656 C 233.179688 90.074219 233.875 91.496094 234.945312 92.574219 L 210.558594 116.683594 C 209.335938 115.453125 207.636719 114.6875 205.765625 114.6875 C 205.601562 114.6875 205.445312 114.699219 205.28125 114.707031 L 203.941406 96.140625 C 206.996094 95.898438 209.472656 93.621094 210.023438 90.664062 Z M 210.023438 90.664062" fill-rule="evenodd"/><path fill="#FFF" d="M 211.695312 118.207031 L 236.449219 93.726562 C 237.207031 94.144531 238.050781 94.433594 238.941406 94.53125 L 231.546875 119.398438 C 230.9375 119.214844 230.296875 119.117188 229.625 119.117188 C 226.394531 119.117188 223.6875 121.382812 223.027344 124.417969 L 212.238281 123.324219 C 212.410156 122.722656 212.507812 122.082031 212.507812 121.421875 C 212.507812 120.25 212.207031 119.15625 211.683594 118.195312 Z M 211.695312 118.207031" fill-rule="evenodd"/><g clip-path="url(#j)"><path d="M 304.402344 138.886719 L 311.292969 128.292969 C 311.496094 128.3125 311.710938 128.324219 311.925781 128.324219 C 315.652344 128.324219 318.679688 125.300781 318.679688 121.578125 C 318.679688 118.246094 316.261719 115.484375 313.078125 114.929688 L 302.144531 83.570312 C 303.453125 82.339844 304.269531 80.59375 304.269531 78.65625 C 304.269531 74.9375 301.242188 71.910156 297.515625 71.910156 C 295.175781 71.910156 293.109375 73.105469 291.894531 74.90625 L 257.601562 64.050781 C 257.601562 63.996094 257.601562 63.9375 257.601562 63.886719 C 257.601562 60.167969 254.574219 57.144531 250.847656 57.144531 C 247.121094 57.144531 244.09375 60.167969 244.09375 63.886719 C 244.09375 64.402344 244.152344 64.90625 244.261719 65.390625 L 211.09375 83.746094 C 209.890625 81.875 207.792969 80.644531 205.40625 80.644531 C 201.679688 80.644531 198.652344 83.667969 198.652344 87.386719 C 198.652344 90.65625 200.980469 93.378906 204.066406 93.996094 L 205.445312 113.078125 C 202.875 114.027344 201.03125 116.5 201.03125 119.40625 C 201.03125 123.128906 204.058594 126.152344 207.785156 126.152344 C 210.140625 126.152344 212.226562 124.941406 213.429688 123.101562 L 224.921875 124.261719 C 225.144531 127.789062 228.074219 130.570312 231.65625 130.570312 C 233.082031 130.570312 234.410156 130.125 235.496094 129.371094 L 242.648438 138.507812 L 242.929688 138.875 L 243.394531 138.875 L 259.554688 138.730469 C 260.386719 141.511719 262.96875 143.546875 266.027344 143.546875 C 266.382812 143.546875 266.734375 143.519531 267.082031 143.46875 L 270.644531 159.78125 L 270.808594 160.535156 L 271.585938 160.515625 L 282.628906 160.304688 L 283.832031 160.285156 L 283.519531 159.132812 L 280.707031 148.683594 L 303.988281 139.265625 L 304.421875 138.90625 Z M 292.699219 83.386719 L 278.097656 97.730469 C 276.980469 96.914062 275.601562 96.429688 274.109375 96.429688 C 273.207031 96.429688 272.351562 96.605469 271.566406 96.925781 L 255.339844 68.925781 C 256.234375 68.132812 256.914062 67.09375 257.292969 65.933594 L 291.070312 76.621094 C 290.867188 77.261719 290.761719 77.949219 290.761719 78.65625 C 290.761719 80.5 291.496094 82.164062 292.699219 83.386719 Z M 244.949219 67.152344 C 245.589844 68.296875 246.539062 69.238281 247.703125 69.847656 L 244.765625 79.753906 C 243.863281 79.304688 242.84375 79.054688 241.777344 79.054688 C 238.050781 79.054688 235.023438 82.078125 235.023438 85.800781 C 235.023438 89.257812 237.621094 92.097656 240.980469 92.496094 L 233.585938 117.363281 C 232.972656 117.179688 232.332031 117.082031 231.664062 117.082031 C 228.433594 117.082031 225.726562 119.347656 225.066406 122.382812 L 214.273438 121.289062 C 214.449219 120.6875 214.546875 120.046875 214.546875 119.386719 C 214.546875 115.667969 211.519531 112.644531 207.792969 112.644531 C 207.628906 112.644531 207.472656 112.652344 207.308594 112.664062 L 205.96875 94.09375 C 209.441406 93.8125 212.167969 90.917969 212.167969 87.378906 C 212.167969 86.710938 212.074219 86.0625 211.886719 85.441406 L 244.949219 67.144531 Z M 236.886719 128.101562 C 237.835938 126.9375 238.417969 125.445312 238.417969 123.828125 C 238.417969 123.285156 238.351562 122.761719 238.234375 122.265625 L 268.492188 106.898438 C 269.265625 108.058594 270.402344 108.96875 271.730469 109.472656 L 267.402344 130.195312 C 266.957031 130.097656 266.5 130.046875 266.027344 130.046875 C 262.300781 130.046875 259.273438 133.070312 259.273438 136.792969 L 259.273438 136.851562 L 243.84375 136.996094 Z M 268.878906 142.910156 C 271.179688 141.832031 272.769531 139.496094 272.769531 136.792969 C 272.769531 136.765625 272.769531 136.726562 272.769531 136.695312 L 306.355469 125.417969 C 307.09375 126.480469 308.128906 127.324219 309.351562 127.820312 L 302.988281 137.617188 L 279.214844 147.238281 L 278.445312 147.550781 L 278.660156 148.34375 L 281.375 158.441406 L 272.304688 158.617188 L 268.878906 142.898438 Z M 311.070312 114.890625 C 309.382812 115.105469 307.878906 115.9375 306.820312 117.160156 L 280.601562 105.035156 C 280.773438 104.445312 280.863281 103.816406 280.863281 103.164062 C 280.863281 101.605469 280.328125 100.171875 279.4375 99.027344 L 294.195312 84.53125 C 295.175781 85.082031 296.300781 85.390625 297.503906 85.390625 C 298.589844 85.390625 299.621094 85.128906 300.53125 84.675781 L 311.0625 114.882812 Z M 272.476562 134.824219 C 271.953125 133.101562 270.75 131.667969 269.179688 130.84375 L 273.554688 109.890625 C 273.738281 109.910156 273.925781 109.910156 274.109375 109.910156 C 276.523438 109.910156 278.640625 108.652344 279.832031 106.742188 L 305.78125 118.738281 C 305.382812 119.601562 305.160156 120.5625 305.160156 121.570312 C 305.160156 122.324219 305.285156 123.042969 305.511719 123.71875 L 272.476562 134.816406 Z M 242.949219 92.4375 C 246.113281 91.886719 248.519531 89.125 248.519531 85.800781 C 248.519531 83.859375 247.695312 82.105469 246.386719 80.875 L 249.472656 70.488281 C 249.917969 70.585938 250.382812 70.632812 250.859375 70.632812 C 251.90625 70.632812 252.90625 70.390625 253.789062 69.964844 L 269.957031 97.855469 C 268.375 99.085938 267.363281 101.003906 267.363281 103.164062 C 267.363281 103.871094 267.472656 104.5625 267.675781 105.199219 L 237.542969 120.511719 C 237 119.554688 236.234375 118.75 235.3125 118.15625 L 242.960938 92.445312 Z M 242.949219 92.4375"/></g><path d="M 207.667969 122.167969 L 244.957031 85.285156 L 244.210938 83.695312 L 204.53125 87.476562 L 204.707031 89.335938 L 241.777344 85.808594 L 206.347656 120.84375 Z M 207.667969 122.167969"/></svg>